<?xml version="1.0" encoding="UTF-8" standalone="no"?><!DOCTYPE svg PUBLIC "-//W3C//DTD SVG 1.1//EN" "http://www.w3.org/Graphics/SVG/1.1/DTD/svg11.dtd"><svg width="100%" height="100%" viewBox="0 0 512 512" version="1.1" xmlns="http://www.w3.org/2000/svg" xmlns:xlink="http://www.w3.org/1999/xlink" xml:space="preserve" xmlns:serif="http://www.serif.com/" style="fill-rule:evenodd;clip-rule:evenodd;stroke-linecap:round;stroke-linejoin:round;"><path d="M512,76.8c0,-42.387 -34.413,-76.8 -76.8,-76.8l-358.4,0c-42.387,0 -76.8,34.413 -76.8,76.8l0,358.4c0,42.387 34.413,76.8 76.8,76.8l358.4,0c42.387,0 76.8,-34.413 76.8,-76.8l0,-358.4Z" style="fill:#262626;"/><path d="M256,109l0,22l0,-22Zm0,86l0,122m0,64l0,22l0,-22Z" style="fill-rule:nonzero;stroke:#fab908;stroke-width:43px;"/><path d="M181,176l0,75l0,-75Zm0,139l0,21l0,-21Z" style="fill-rule:nonzero;stroke:#ea4335;stroke-width:43px;"/><path d="M331,176l0,21l0,-21Zm0,85l0,75l0,-75Z" style="fill-rule:nonzero;stroke:#34a853;stroke-width:43px;"/><path d="M405,245l0,22" style="fill:none;fill-rule:nonzero;stroke:#4285f4;stroke-width:43px;"/><path d="M107,245l0,22" style="fill:none;fill-rule:nonzero;stroke:#0066d9;stroke-width:43px;"/></svg>