<?xml version="1.0" encoding="UTF-8" standalone="no"?>
<!DOCTYPE svg PUBLIC "-//W3C//DTD SVG 1.1//EN" "http://www.w3.org/Graphics/SVG/1.1/DTD/svg11.dtd">
<svg width="100%" height="100%" viewBox="0 0 75 28" version="1.1" xmlns="http://www.w3.org/2000/svg" xmlns:xlink="http://www.w3.org/1999/xlink" xml:space="preserve" xmlns:serif="http://www.serif.com/" style="fill-rule:evenodd;clip-rule:evenodd;stroke-linejoin:round;stroke-miterlimit:2;">
    <g id="Layer-1" serif:id="Layer 1" transform="matrix(4.16667,0,0,4.16667,0,0)">
        <g transform="matrix(1,0,0,1,0,0.2445)">
            <rect x="1.237" y="0.707" width="5.243" height="5.029" style="fill:rgb(218,37,43);"/>
        </g>
        <g transform="matrix(1,0,0,1,0,0.2445)">
            <rect x="6.472" y="0.707" width="5.352" height="5.029"/>
        </g>
        <g transform="matrix(1,0,0,1,0,0.2445)">
            <rect x="11.824" y="0.707" width="5.172" height="5.029" style="fill:rgb(31,127,195);"/>
        </g>
        <g transform="matrix(1,0,0,1,4.3677,2.0801)">
            <path d="M0,2.79L0,1.21C0,0.978 -0.045,0.808 -0.135,0.7C-0.225,0.593 -0.371,0.54 -0.574,0.54C-0.668,0.54 -0.769,0.566 -0.875,0.619C-0.982,0.671 -1.065,0.737 -1.125,0.815L-1.125,2.79L-1.765,2.79L-1.765,0.046L-1.304,0.046L-1.186,0.302C-1.012,0.101 -0.755,0 -0.415,0C-0.089,0 0.168,0.098 0.356,0.293C0.545,0.488 0.64,0.76 0.64,1.11L0.64,2.79L0,2.79Z" style="fill:white;fill-rule:nonzero;"/>
        </g>
        <g transform="matrix(1,0,0,1,8.9551,5.0515)">
            <path d="M0,-2.424C0.294,-2.424 0.506,-2.358 0.633,-2.226C0.761,-2.094 0.825,-1.866 0.825,-1.543C0.825,-1.24 0.761,-1.018 0.632,-0.878C0.503,-0.737 0.292,-0.667 -0.002,-0.667C-0.157,-0.667 -0.292,-0.714 -0.408,-0.807L-0.408,-2.245C-0.289,-2.364 -0.153,-2.424 0,-2.424M0.143,-0.128C0.561,-0.128 0.891,-0.249 1.133,-0.491C1.375,-0.734 1.495,-1.079 1.495,-1.528C1.495,-2.49 1.058,-2.971 0.184,-2.971C-0.05,-2.971 -0.248,-2.895 -0.408,-2.741L-0.408,-2.925L-1.048,-2.925L-1.048,0.547L-0.408,0.547L-0.408,-0.248C-0.243,-0.168 -0.059,-0.128 0.143,-0.128" style="fill:white;fill-rule:nonzero;"/>
        </g>
        <g transform="matrix(1,0,0,1,15.2085,4.2236)">
            <path d="M0,-1.496C-0.114,-1.568 -0.238,-1.604 -0.374,-1.604C-0.522,-1.604 -0.653,-1.537 -0.768,-1.402C-0.883,-1.268 -0.939,-1.104 -0.939,-0.91L-0.939,0.647L-1.58,0.647L-1.58,-2.097L-0.939,-2.097L-0.939,-1.835C-0.762,-2.04 -0.524,-2.143 -0.229,-2.143C-0.012,-2.143 0.155,-2.11 0.271,-2.044L0,-1.496Z" style="fill:white;fill-rule:nonzero;"/>
        </g>
        <g transform="matrix(1,0,0,1,0,0.2435)">
            <path d="M1.239,0.708L16.998,0.708L16.998,5.736L1.239,5.736L1.239,0.708ZM0.902,6.073L17.335,6.073L17.335,0.371L0.902,0.371L0.902,6.073Z" style="fill:white;fill-rule:nonzero;"/>
        </g>
    </g>
</svg>
