<?xml version="1.0" encoding="UTF-8" standalone="no"?><!DOCTYPE svg PUBLIC "-//W3C//DTD SVG 1.1//EN" "http://www.w3.org/Graphics/SVG/1.1/DTD/svg11.dtd"><svg width="100%" height="100%" viewBox="0 0 48 48" version="1.1" xmlns="http://www.w3.org/2000/svg" xmlns:xlink="http://www.w3.org/1999/xlink" xml:space="preserve" xmlns:serif="http://www.serif.com/" style="fill-rule:evenodd;clip-rule:evenodd;stroke-linejoin:round;stroke-miterlimit:2;"><g id="Icons"><g id="Color-"><path id="Spotify" d="M38.16,21.36c-7.68,-4.56 -20.52,-5.04 -27.84,-2.76c-1.2,0.36 -2.4,-0.36 -2.76,-1.44c-0.36,-1.2 0.36,-2.4 1.44,-2.76c8.52,-2.52 22.56,-2.04 31.44,3.24c1.08,0.6 1.44,2.04 0.84,3.12c-0.6,0.84 -2.04,1.2 -3.12,0.6m-0.24,6.72c-0.6,0.84 -1.68,1.2 -2.52,0.6c-6.48,-3.96 -16.32,-5.16 -23.88,-2.76c-0.96,0.24 -2.04,-0.24 -2.28,-1.2c-0.24,-0.96 0.24,-2.04 1.2,-2.28c8.76,-2.64 19.56,-1.32 27,3.24c0.72,0.36 1.08,1.56 0.48,2.4m-2.88,6.6c-0.48,0.72 -1.32,0.96 -2.04,0.48c-5.64,-3.48 -12.72,-4.2 -21.12,-2.28c-0.84,0.24 -1.56,-0.36 -1.8,-1.08c-0.24,-0.84 0.36,-1.56 1.08,-1.8c9.12,-2.04 17.04,-1.2 23.28,2.64c0.84,0.36 0.96,1.32 0.6,2.04m-11.04,-34.68c-13.2,0 -24,10.8 -24,24c0,13.2 10.8,24 24,24c13.2,0 24,-10.8 24,-24c0,-13.2 -10.68,-24 -24,-24" style="fill:#00da5a;"/></g></g></svg>